<svg xmlns="http://www.w3.org/2000/svg" xmlns:xlink="http://www.w3.org/1999/xlink" id="Layer_1" viewBox="-0.28 -0.28 366.49 92.89"><defs><style>.cls-1,.cls-2,.cls-3{stroke-width:0px;}.cls-1,.cls-4{fill:#231f20;}.cls-5{stroke:#6d6e71;stroke-miterlimit:10;stroke-width:.41px;}.cls-5,.cls-2{fill:none;}.cls-6{clip-path:url(#clippath-2);}.cls-3{fill:#ba141a;}.cls-7{clip-path:url(#clippath-1);}.cls-8{clip-path:url(#clippath-4);}.cls-9{clip-path:url(#clippath);}.cls-10{clip-path:url(#clippath-3);}.cls-11{letter-spacing:.35em;}.cls-4{font-family:EurostileRegular, Eurostile;font-size:16.42px;}.cls-12{letter-spacing:.35em;}</style><clipPath id="clippath"><rect class="cls-2" x="-31.61" y="-45.22" width="506.53" height="177.57"/></clipPath><clipPath id="clippath-1"><path class="cls-2" d="M80.09-.2v19.96h19.58v-2.34h-16.92v-6.84h16.18v-2.34h-16.18V2.13h16.9V-.2h-19.56ZM159.39-.2l-9.33,9.58L140.43-.2h-3.6l11.9,11.79v8.16h2.66v-8.16L163.1-.2h-3.71ZM172.47,2.13h9.98c2.49.05,4.04.11,4.62.19.59.07,1.08.25,1.47.54.3.23.5.57.6,1,.11.43.15,1.16.15,2.19,0,.92-.06,1.61-.17,2.06-.13.45-.33.81-.63,1.06-.41.33-.91.53-1.51.6-.6.06-2.11.1-4.54.11h-9.98V2.13ZM169.82-.2v19.96h2.66v-7.52h9.98c2.04,0,3.29-.02,3.72-.03,1.22-.04,2.12-.15,2.7-.3.58-.16,1.14-.47,1.67-.93.53-.45.91-1.05,1.14-1.83.23-.78.34-1.83.34-3.18,0-1.71-.21-3.01-.64-3.89-.26-.54-.66-1-1.19-1.37-.53-.36-1.11-.59-1.74-.68-.68-.09-2.68-.16-5.99-.23h-12.63ZM198.05-.2v2.34h10.03v17.62h2.66V2.13h9.98V-.2h-22.68ZM110.12.41c-1.43.46-2.33,1.43-2.71,2.9-.4,1.54-.6,3.7-.6,6.48,0,3.98.36,6.56,1.1,7.72.65,1.03,1.7,1.67,3.16,1.9,1.68.27,4.54.4,8.58.4,4.3,0,7.06-.2,8.29-.6.91-.3,1.58-.71,2.02-1.22.44-.52.77-1.29.97-2.31.18-.93.28-2.94.31-6.02h-13.09v2.34h10.41c-.03,2.07-.19,3.39-.47,3.98-.29.59-.96.97-2.01,1.15-1.16.19-2.96.3-5.39.3-4.41,0-7.26-.11-8.57-.31-.66-.11-1.16-.3-1.49-.56-.33-.27-.57-.69-.73-1.24-.24-.94-.36-2.9-.36-5.9,0-2.01.07-3.46.21-4.38.15-.91.4-1.55.77-1.9.4-.38,1.22-.64,2.44-.79,1.24-.15,3.24-.22,6.04-.22,2.13,0,3.9.05,5.34.14,1.04.08,1.8.18,2.28.3.48.12.85.31,1.11.55.4.41.62,1.38.65,2.93h2.74c-.02-1.19-.13-2.11-.32-2.77-.19-.65-.53-1.22-1.01-1.73-.8-.81-1.83-1.3-3.11-1.48-.62-.09-1.79-.17-3.49-.24-1.72-.08-3.25-.11-4.63-.11-4.18,0-6.98.23-8.41.69"/></clipPath><clipPath id="clippath-2"><rect class="cls-2" x="-31.61" y="-45.22" width="506.53" height="177.57"/></clipPath><clipPath id="clippath-3"><path class="cls-2" d="M128.88,61.64h9.91v-30.97h-9.91v30.97ZM147.31,30.67v30.97h31.95v-7.9h-22.03v-23.08h-9.92ZM297.97,37.88h1.88l5.97,11.72h-13.82l5.97-11.72ZM291.64,30.67l-16.43,30.97h10.78l2.66-5.24h20.49l2.66,5.24h10.71l-16.21-30.97h-14.65ZM192.06,57.58c-1.32-.22-2.25-.76-2.82-1.63-.56-.89-.83-2.23-.83-4.07,0-2.75.66-4.56,2-5.43.87-.57,2.32-.93,4.31-1.07l20.99,11.01c-.47.66-1.48,1.12-3.02,1.36-1.54.24-4.19.36-7.97.36-6.29,0-10.51-.18-12.66-.54M191.52,31.82c-1.98,1.02-2.98,2.87-2.98,5.56s1.05,4.59,3.16,5.8c-1.71.23-2.94.52-3.68.85-.73.34-1.46.95-2.18,1.85-1.02,1.32-1.52,3.26-1.52,5.83,0,2.25.3,4.07.9,5.44.54,1.16,1.41,2.13,2.63,2.9,1.04.66,2.57,1.13,4.64,1.38,2.05.26,5.2.38,9.43.38,7.32,0,11.96-.31,13.93-.92.76-.25,1.34-.51,1.76-.81.42-.29,1.02-.86,1.81-1.71l6.24,3.32,1.08-3.45-6.08-3.22c.23-1.88.36-4.07.38-6.56v-1.95h-3.97v3.06c.02.37-.04,1.57-.15,3.59l-18.56-9.82c-2.37-1.26-3.91-2.26-4.65-2.98-.73-.73-1.09-1.67-1.09-2.78s.4-2.02,1.2-2.56c.46-.3,1.21-.51,2.26-.6,1.05-.1,3.07-.15,6.05-.15,3.37,0,5.86.09,7.47.25,1.85.19,3.02.56,3.53,1.14.54.57.8,1.61.8,3.13v1.45h3.97v-1.18c0-1.89-.16-3.3-.51-4.21-.35-.91-1-1.68-1.95-2.3-1.98-1.31-6.8-1.96-14.46-1.96-4.68,0-7.84.41-9.46,1.22M91.56,53.77c-1.9-.22-3.04-1.13-3.42-2.71-.19-.84-.3-2.21-.3-4.1,0-3.14.18-5.23.54-6.29.37-1.05,1.13-1.72,2.3-2.02,1.01-.26,4.02-.39,9.03-.39,4.38,0,7.15.08,8.3.24,1.15.15,1.97.57,2.47,1.24.39.53.67,1.32.82,2.36.15,1.04.23,2.68.23,4.9,0,1.89-.1,3.23-.3,4.06-.19.82-.57,1.45-1.11,1.87-.6.47-1.54.77-2.79.91-1.26.14-3.78.2-7.58.2-4.06,0-6.79-.09-8.2-.27M85.89,30.71c-3.62.49-5.83,2.2-6.65,5.16-.56,2-.84,5.37-.84,10.1s.28,8.45.84,10.48c.82,2.95,3.04,4.67,6.65,5.15,2.51.34,7.14.5,13.89.5s11.18-.16,13.7-.5c3.62-.48,5.83-2.21,6.65-5.15.56-2.03.83-5.47.83-10.3s-.27-8.26-.83-10.27c-.82-2.96-3.03-4.67-6.65-5.16-2.51-.34-7.11-.5-13.79-.5s-11.3.16-13.79.5M236.43,31.05c-2.9.52-4.8,1.97-5.69,4.36-.44,1.13-.74,2.42-.89,3.86-.15,1.44-.22,3.57-.22,6.4,0,4.17.09,6.95.27,8.35.19,1.51.52,2.73.98,3.66.47.92,1.15,1.67,2.02,2.27,1.28.85,3.03,1.43,5.25,1.71,2.2.29,5.97.44,11.3.44,4.21,0,7.33-.05,9.38-.17,2.06-.11,3.88-.32,5.46-.65,3.69-.75,5.72-2.92,6.08-6.49.22-2.21.33-5.5.33-9.87,0-.06-.01-.34-.04-.84h-21.58v6.19h12.41c.01.44.02.73.02.86,0,.9-.09,1.56-.29,2.01-.19.45-.51.77-.96.97-.56.22-1.31.37-2.22.42-.92.06-3.53.1-7.83.13-4.38-.06-6.99-.13-7.82-.22-.82-.08-1.49-.33-2.01-.74-.52-.42-.86-1.15-1.04-2.19-.18-1.04-.27-2.87-.27-5.48,0-2.33.09-3.97.27-4.94.19-.96.53-1.66,1.04-2.07.51-.41,1.47-.69,2.88-.84,1.39-.15,3.73-.23,6.99-.23,3.02,0,5.32.05,6.9.14,1.68.09,2.78.33,3.32.7.28.21.47.48.56.79.1.31.15.9.16,1.78h9.45c-.02-2.15-.15-3.84-.39-5.07-.5-2.47-1.93-4.07-4.31-4.81-1.47-.45-3.34-.77-5.61-.97-2.26-.19-5.35-.3-9.25-.3-6.58,0-11.47.28-14.64.84M333.93,30.65c-2.1.31-3.65,1.02-4.67,2.15-1.33,1.44-1.99,3.9-1.99,7.4,0,3.12.58,5.34,1.74,6.67.68.79,1.63,1.38,2.85,1.74,1.22.35,2.96.57,5.23.65,1.17.02,3.68.13,7.54.32,3.77.17,6.23.27,7.4.27,1.51.03,2.51.2,3.01.51.49.31.73.92.73,1.84,0,1.28-.35,2.05-1.04,2.34-.46.2-1.1.32-1.91.36-.8.04-3.2.06-7.19.08-3.81-.03-6.08-.07-6.8-.12-.71-.05-1.3-.22-1.75-.51-.64-.44-.95-1.42-.93-2.95h-9.14v1.45c0,2.23.23,3.89.67,4.97.45,1.09,1.25,1.97,2.42,2.63,1.12.62,2.8,1.06,5.02,1.3,2.22.24,5.66.36,10.32.36,5.56,0,9.36-.09,11.41-.27,1.91-.19,3.38-.54,4.44-1.05,1.05-.51,1.87-1.29,2.46-2.34.78-1.41,1.18-3.59,1.18-6.51,0-2.23-.24-3.93-.71-5.12-.46-1.19-1.27-2.13-2.4-2.8-.99-.57-2.34-.96-4.03-1.17-1.69-.2-5.03-.37-10.04-.52-5.95-.19-9.28-.37-10-.57-.88-.24-1.32-.91-1.32-2s.44-1.82,1.32-2.07c.87-.25,3.31-.38,7.32-.38,3.33,0,5.5.03,6.54.1,1.02.07,1.74.22,2.15.47.33.2.56.46.67.77.12.32.18.9.22,1.77h9.14c.02-.71.02-1.19.02-1.45,0-2.82-.52-4.81-1.59-6.01-1.05-1.18-3.01-1.98-5.85-2.37-1.84-.25-5.04-.39-9.6-.39-6.44,0-10.72.15-12.83.46"/></clipPath><clipPath id="clippath-4"><rect class="cls-2" x="-31.61" y="-45.22" width="506.53" height="177.57"/></clipPath></defs><g class="cls-9"><path class="cls-1" d="M64.44,42.99c-1.39,9.44-15.75,17.14-31.95,17.14-2.9,0-5.66-.25-8.23-.71,3.73,1.7,8.35,2.69,13.47,2.69,13.8,0,26.12-7.19,27.42-16,.27-1.84.04-3.61-.62-5.26.05.7.02,1.42-.09,2.14M60.94,26.35c-1.55,10.48-17.49,19.03-35.5,19.03-3.21,0-6.28-.28-9.15-.78,4.14,1.89,9.28,2.99,14.97,2.99,15.33,0,29.01-7.99,30.46-17.78.3-2.04.04-4.01-.69-5.84.05.78.02,1.57-.09,2.38M44.58,13.46c-1.33.93-1.5,2.32-.37,3.1,1.13.78,3.15.64,4.48-.29,1.34-.93,1.5-2.32.37-3.1-.5-.34-1.16-.5-1.87-.5-.9,0-1.86.27-2.61.79M55.65,14.4c-2.72,8.01-17.33,14.54-32.54,14.54S-2.28,22.41.44,14.4c.03-.09.06-.16.09-.25-.15.35-.29.7-.41,1.06-2.66,8.38,8.19,15.22,24.17,15.22s31.18-6.84,33.84-15.22C60.51,7.73,52.14,1.49,38.99.22c11.77,1.48,19.01,7.28,16.67,14.18"/><path class="cls-3" d="M80.09-.2v19.96h19.58v-2.34h-16.92v-6.84h16.18v-2.34h-16.18V2.13h16.9V-.2h-19.57ZM159.39-.2l-9.33,9.58L140.42-.2h-3.6l11.9,11.79v8.16h2.66v-8.16L163.1-.2h-3.71ZM172.47,2.13h9.98c2.49.05,4.04.11,4.62.19.59.07,1.08.25,1.47.54.3.23.5.57.6,1,.11.43.15,1.16.15,2.19,0,.92-.06,1.61-.17,2.06-.12.45-.33.81-.63,1.06-.41.33-.91.53-1.51.6-.59.06-2.11.1-4.54.11h-9.98V2.13ZM169.82-.2v19.96h2.66v-7.52h9.98c2.04,0,3.29-.02,3.72-.03,1.22-.04,2.12-.15,2.7-.3.58-.16,1.14-.47,1.67-.93.53-.45.9-1.05,1.14-1.84.23-.77.34-1.83.34-3.18,0-1.71-.21-3.01-.64-3.89-.26-.54-.65-1-1.19-1.37-.52-.37-1.11-.59-1.74-.68-.68-.09-2.68-.16-5.99-.24h-12.63ZM198.05-.2v2.34h10.03v17.62h2.66V2.13h9.98V-.2h-22.68ZM118.53-.28c-4.18,0-6.98.23-8.41.69-1.43.46-2.34,1.43-2.72,2.9-.4,1.54-.59,3.71-.59,6.48,0,3.98.36,6.56,1.1,7.72.65,1.03,1.7,1.67,3.16,1.9,1.68.27,4.54.4,8.58.4,4.3,0,7.07-.2,8.29-.6.91-.31,1.58-.71,2.02-1.22.44-.52.77-1.29.97-2.31.18-.93.28-2.94.31-6.03h-13.09v2.34h10.41c-.03,2.07-.19,3.39-.47,3.98-.28.59-.96.97-2.01,1.15-1.16.19-2.96.3-5.39.3-4.41,0-7.26-.1-8.57-.31-.66-.11-1.16-.3-1.49-.56-.33-.27-.58-.69-.74-1.24-.24-.93-.36-2.9-.36-5.89,0-2.01.07-3.47.21-4.38.15-.91.4-1.55.77-1.89.4-.38,1.22-.65,2.44-.79,1.23-.15,3.24-.22,6.03-.22,2.13,0,3.9.05,5.34.14,1.04.08,1.8.18,2.27.3.48.12.85.31,1.12.55.4.41.62,1.38.65,2.93h2.74c-.02-1.19-.13-2.11-.32-2.77-.19-.65-.53-1.22-1.01-1.73-.8-.81-1.83-1.3-3.11-1.47-.62-.09-1.79-.17-3.49-.24-1.72-.08-3.26-.11-4.64-.11"/></g><g class="cls-7"><rect class="cls-3" x="80.09" y="-.28" width="140.64" height="20.07"/></g><g class="cls-6"><path class="cls-1" d="M128.88,61.64h9.91v-30.97h-9.91v30.97ZM147.31,30.67v30.97h31.95v-7.9h-22.03v-23.07h-9.92ZM297.97,37.89h1.88l5.97,11.72h-13.82l5.97-11.72ZM291.64,30.67l-16.43,30.97h10.78l2.65-5.24h20.49l2.66,5.24h10.71l-16.21-30.97h-14.65ZM192.06,57.58c-1.31-.22-2.25-.76-2.82-1.63-.56-.89-.83-2.23-.83-4.07,0-2.75.66-4.56,2-5.42.88-.57,2.32-.93,4.31-1.07l20.99,11c-.47.66-1.48,1.13-3.02,1.36-1.54.24-4.2.37-7.97.37-6.29,0-10.51-.18-12.66-.54M191.52,31.82c-1.98,1.02-2.98,2.87-2.98,5.56s1.05,4.59,3.16,5.8c-1.71.23-2.94.52-3.68.85-.73.34-1.46.95-2.18,1.85-1.02,1.32-1.52,3.26-1.52,5.83,0,2.25.3,4.07.9,5.44.54,1.16,1.41,2.13,2.63,2.91,1.04.66,2.57,1.12,4.63,1.38,2.06.26,5.2.38,9.44.38,7.32,0,11.96-.31,13.93-.92.76-.25,1.34-.51,1.76-.81.41-.29,1.02-.87,1.8-1.71l6.24,3.32,1.08-3.46-6.08-3.21c.23-1.88.36-4.07.38-6.56v-1.95h-3.97v3.06c.02.37-.04,1.57-.15,3.59l-18.56-9.82c-2.37-1.26-3.91-2.25-4.65-2.98-.73-.74-1.09-1.67-1.09-2.78s.4-2.02,1.2-2.56c.46-.3,1.21-.51,2.26-.6,1.05-.1,3.07-.15,6.05-.15,3.37,0,5.86.09,7.47.25,1.85.19,3.02.56,3.53,1.14.54.57.8,1.61.8,3.13v1.45h3.97v-1.18c0-1.89-.16-3.3-.51-4.21-.35-.91-1-1.68-1.95-2.3-1.98-1.31-6.8-1.96-14.46-1.96-4.68,0-7.84.41-9.46,1.22M91.56,53.77c-1.91-.22-3.04-1.13-3.42-2.71-.19-.84-.3-2.21-.3-4.1,0-3.14.18-5.23.54-6.28.37-1.05,1.13-1.73,2.3-2.03,1.01-.26,4.02-.39,9.03-.39,4.38,0,7.15.08,8.3.24,1.15.15,1.98.57,2.47,1.24.39.53.66,1.32.82,2.36.15,1.04.23,2.68.23,4.9,0,1.89-.1,3.23-.3,4.06-.19.83-.57,1.45-1.12,1.87-.6.47-1.54.77-2.79.91-1.26.14-3.78.2-7.58.2-4.06,0-6.78-.09-8.19-.27M85.89,30.71c-3.61.49-5.83,2.2-6.65,5.16-.55,2-.83,5.37-.83,10.1,0,4.96.28,8.46.83,10.48.82,2.95,3.04,4.67,6.65,5.16,2.51.33,7.14.49,13.89.49s11.19-.16,13.7-.49c3.62-.49,5.83-2.21,6.66-5.16.56-2.03.83-5.47.83-10.3s-.27-8.25-.83-10.27c-.82-2.96-3.04-4.67-6.66-5.16-2.51-.33-7.11-.5-13.79-.5s-11.3.16-13.8.5M236.43,31.05c-2.9.52-4.8,1.97-5.7,4.36-.44,1.14-.74,2.43-.89,3.86-.15,1.44-.22,3.57-.22,6.4,0,4.17.09,6.95.27,8.35.19,1.51.51,2.73.98,3.66.47.92,1.15,1.67,2.02,2.27,1.28.85,3.03,1.43,5.24,1.71,2.21.29,5.97.44,11.3.44,4.21,0,7.33-.05,9.37-.17,2.06-.11,3.88-.32,5.47-.65,3.68-.75,5.72-2.92,6.08-6.49.22-2.21.33-5.5.33-9.87,0-.06-.01-.34-.04-.84h-21.58v6.2h12.41c.01.44.02.72.02.86,0,.9-.09,1.56-.29,2.01-.18.45-.51.77-.96.97-.56.22-1.31.37-2.22.42-.92.05-3.53.09-7.83.12-4.39-.06-6.99-.13-7.82-.21-.82-.08-1.49-.33-2.01-.74-.52-.42-.86-1.15-1.04-2.19-.18-1.04-.27-2.86-.27-5.48,0-2.33.09-3.97.27-4.94.19-.96.53-1.66,1.04-2.07.51-.41,1.47-.69,2.88-.84,1.39-.15,3.73-.23,6.99-.23,3.02,0,5.32.05,6.9.14,1.68.09,2.78.33,3.31.7.29.21.47.48.57.79.1.31.15.9.15,1.78h9.45c-.02-2.15-.15-3.84-.39-5.07-.49-2.47-1.93-4.07-4.3-4.81-1.47-.45-3.34-.77-5.61-.97-2.26-.19-5.35-.3-9.25-.3-6.59,0-11.47.28-14.64.84M333.93,30.65c-2.1.31-3.65,1.02-4.67,2.15-1.33,1.44-1.99,3.9-1.99,7.4,0,3.12.58,5.34,1.74,6.67.68.8,1.63,1.38,2.85,1.74,1.22.35,2.96.57,5.23.65,1.17.02,3.68.13,7.54.32,3.76.17,6.23.27,7.4.27,1.51.03,2.51.2,3.01.51.49.31.73.92.73,1.84,0,1.28-.35,2.05-1.04,2.34-.46.2-1.1.32-1.91.36-.8.04-3.2.06-7.19.08-3.81-.03-6.08-.07-6.8-.12-.71-.05-1.3-.22-1.75-.51-.64-.44-.95-1.42-.93-2.95h-9.14v1.45c0,2.23.22,3.89.67,4.97.45,1.09,1.25,1.97,2.42,2.63,1.12.62,2.8,1.06,5.02,1.3,2.22.24,5.66.36,10.32.36,5.56,0,9.36-.09,11.41-.27,1.91-.19,3.38-.54,4.44-1.05,1.05-.51,1.88-1.29,2.46-2.34.78-1.41,1.18-3.59,1.18-6.51,0-2.22-.24-3.92-.71-5.12-.46-1.19-1.27-2.12-2.4-2.8-1-.57-2.34-.96-4.03-1.17-1.69-.2-5.03-.38-10.04-.52-5.95-.19-9.28-.37-10-.57-.88-.24-1.32-.91-1.32-2s.44-1.82,1.32-2.07c.87-.25,3.31-.38,7.32-.38,3.33,0,5.5.03,6.54.1,1.02.07,1.74.22,2.15.47.33.2.56.46.67.77.12.32.18.9.22,1.77h9.15c.01-.71.02-1.19.02-1.45,0-2.82-.52-4.81-1.59-6-1.05-1.18-3.01-1.98-5.85-2.37-1.84-.26-5.04-.39-9.6-.39-6.44,0-10.71.15-12.83.46"/></g><g class="cls-10"><rect class="cls-1" x="78.4" y="30.19" width="286.51" height="31.91"/></g><text class="cls-4" transform="translate(261.42 88.56) scale(1.43 1)"><tspan class="cls-12" x="0" y="0">GRO</tspan><tspan class="cls-11" x="47.65" y="0">U</tspan><tspan x="64.14" y="0">P</tspan></text><g class="cls-8"><line class="cls-5" x1="251.57" y1="85.46" x2="78.4" y2="85.46"/></g></svg>