<svg width="109" height="40" viewBox="0 0 109 40" fill="none" xmlns="http://www.w3.org/2000/svg">
<g clip-path="url(#clip0_4411_7693)">
<path d="M61.3866 14.4025C61.5505 14.2386 61.5892 13.8607 62.0331 14.5937C62.1287 14.7553 62.2721 14.9511 62.345 14.9169C62.3973 14.9237 62.4793 14.7917 62.5089 14.7462C62.9004 14.1817 63.3898 13.8789 63.9452 13.6308C63.9589 13.6239 63.9771 13.6217 63.993 13.6217C64.6691 13.69 65.2405 13.9199 66.0167 14.2386C66.085 14.2682 66.167 14.2317 66.1874 14.1612C66.5175 13.0366 65.9644 12.0259 65.9848 11.878C66.0053 11.73 66.0782 11.8029 66.3582 12.0829C66.966 12.6906 67.9106 12.7339 68.4638 12.5882C68.7483 12.5154 69.1171 12.3333 69.2628 12.142C69.322 12.0646 69.2719 11.9554 69.1763 11.9394C67.5168 11.6845 67.4235 9.97268 66.7269 8.81857C66.6882 8.75256 66.6518 8.65012 66.6791 8.62964L67.2095 8.90052C67.2095 8.90052 69.5633 9.4036 69.6657 9.41953C69.9024 9.45595 70.014 9.18962 70.014 9.18962C70.0322 9.11905 70.1802 8.54996 70.1665 8.04689C70.1597 7.81926 69.9116 7.67812 69.7977 7.79422C69.7545 7.83974 69.7112 7.88755 69.6657 7.92169C69.6065 7.96494 69.5291 7.97177 69.4586 7.95356C68.8553 7.78966 68.6505 7.73048 67.9994 7.46415L67.1526 6.10972C67.098 5.93672 67.2368 5.86843 67.2915 5.8229C67.9539 5.25381 68.5389 4.84635 70.8471 3.66037C71.0657 3.54655 70.6286 2.11245 70.4078 1.16321C70.335 0.833142 70.0641 0.744365 69.9389 0.776234C66.9864 1.54109 64.3641 2.92966 63.7768 2.33098C63.7677 2.32187 63.7768 2.33098 63.7654 2.32415L60.797 0.0796711C60.5512 -0.10699 60.2963 0.0523549 60.335 0.359662C60.4829 1.51605 60.6195 2.18757 60.7174 2.89096C60.7401 3.05258 60.7106 3.13908 60.5967 3.13908C59.9252 3.13908 59.2833 3.62167 58.8872 4.3114C58.3363 5.27885 57.8332 6.1598 56.9318 6.61052C56.8681 6.64238 56.8362 6.71978 56.8704 6.78124C57.0638 7.14546 57.3962 7.35716 57.7285 7.4687C58.095 7.59162 58.2703 7.5165 58.5389 7.6417C58.6027 7.66902 58.6322 7.74186 58.6072 7.80787C58.5844 7.86706 58.5435 7.92169 58.507 7.99681C57.7445 9.3649 58.6163 11.1018 57.3393 12.1785C57.2619 12.2422 57.296 12.3674 57.3939 12.3811C58.8849 12.6201 59.347 11.5411 59.5291 11.746C59.0739 13.13 59.2969 13.3212 59.0101 15.0854C58.9464 15.4792 58.6641 15.9891 58.9122 15.9162C60.8858 15.3403 61.2455 14.5436 61.3866 14.4025ZM65.1699 3.62395C65.5956 3.62395 65.9029 3.93353 65.9029 4.36376C65.9029 4.79399 65.5956 5.10813 65.1699 5.10813C64.8012 5.10813 64.4961 4.79854 64.4961 4.36376C64.4961 3.92898 64.8012 3.62395 65.1699 3.62395ZM71.9011 3.99954C71.8533 3.93581 71.7395 3.77874 71.7144 3.71728H71.7213C72.5385 3.71728 73.2965 3.40086 74.0295 3.09583H74.034C74.9651 2.65195 75.8665 2.43797 76.7884 2.43797C77.8196 2.43797 78.8531 2.69064 80.2507 3.28249H80.2553C80.8062 3.4646 81.7008 3.53062 81.7531 3.53289C81.9011 3.55566 82.0536 3.58297 82.1993 3.61256C82.4474 3.66037 82.6819 3.70362 82.9004 3.715C82.8845 3.76963 82.848 3.81516 82.8071 3.86524C82.7456 3.94491 82.6682 4.04279 82.6682 4.19303V4.23401L82.7001 4.25677C82.9732 4.45254 83.2851 4.47985 83.5537 4.47985C83.6721 4.47985 83.795 4.47302 83.9157 4.46847C84.0363 4.46164 84.1615 4.45481 84.2844 4.45481C84.8285 4.45481 85.3748 4.30913 85.9029 4.16572C86.4219 4.02686 86.9568 3.88117 87.4804 3.88117C87.922 3.88117 88.3158 3.98589 88.6823 4.19759C88.8735 4.29775 89.1262 4.57546 89.1831 4.79171C88.3181 4.80082 87.7126 5.42226 87.1253 6.02549C86.6404 6.52174 86.1396 7.03619 85.4977 7.19781H85.4886L85.4818 7.20464C84.5872 7.65081 83.663 7.86706 82.6546 7.86706C81.9034 7.86706 81.093 7.74869 80.1756 7.50512L80.0777 7.4778V7.58024C80.0777 7.77828 80.0777 7.95128 80.1483 8.18575C79.8342 8.07648 79.5086 8.02185 79.1558 8.02185C78.6436 8.02185 78.1337 8.13567 77.5942 8.25404L77.4759 8.27908C76.8681 8.41338 76.2671 8.53403 75.5865 8.53403C75.22 8.53403 74.8672 8.49988 74.5052 8.42932C73.3898 8.26997 72.7251 7.8534 72.2858 7.57796C72.0445 7.42772 71.8715 7.31846 71.7213 7.31846C70.6491 7.31846 69.5587 7.19781 68.8439 6.32142C69.9639 5.27885 71.1522 4.97837 72.1651 4.82358L72.2129 4.81675L72.2289 4.77123C72.3017 4.54587 72.0877 4.25449 71.9011 3.99954Z" fill="#FAB600"/>
<path d="M102.654 32.0464C101.817 31.0813 101.635 30.4667 101.928 29.4764C102.06 29.0257 102.363 28.8937 102.404 28.7343C102.415 28.682 102.365 28.6365 102.311 28.6456C101.787 28.7343 101.585 28.2131 101.655 27.9923C101.708 27.669 101.771 27.4004 102.049 26.9315C102.11 26.829 102.063 26.7608 101.944 26.7471C101.448 26.697 101.261 27.0703 101.214 26.7107C101.173 26.3988 101.341 26.0619 101.642 25.5748C101.735 25.42 101.22 25.3449 101.127 25.338C100.929 25.3244 100.715 25.1127 100.715 25.0148C100.72 24.6665 100.952 24.6278 100.849 24.5049C100.685 24.3046 99.5564 23.8243 98.3795 22.3287C98.1063 21.8529 98.0198 21.2429 97.799 20.717C96.9431 18.5522 96.2762 16.3761 94.7487 14.5186C94.3845 14.086 94.2616 14.0223 93.7744 13.6513C93.6174 13.5283 93.672 13.3986 94.0795 12.9319C94.726 12.1921 95.3224 11.5752 95.2359 9.87935C95.1334 7.88072 93.4102 6.51491 91.8737 6.51491C90.064 6.51491 88.9167 7.44594 88.4592 8.26542C87.9379 9.201 87.6465 10.2117 87.2732 11.1291C87.0911 11.5798 86.2966 13.5261 85.3474 13.8903C85.0924 14.0587 84.2866 14.0974 83.7836 13.5283C83.5423 13.2188 83.2486 12.7202 83.4307 12.29H83.4853C83.6697 12.4129 83.7608 12.743 83.9839 12.9114C84.2297 13.0981 84.6508 13.1027 84.8899 12.9706C85.2199 12.7862 85.3064 12.4175 85.3064 12.0464C85.3064 11.5934 85.1175 11.3089 84.8102 11.038C84.4687 10.7444 83.7813 10.7353 83.3624 10.9128C82.4769 11.2884 82.4724 12.2422 82.4519 12.611C82.5111 13.2324 82.8229 14.1316 83.6447 14.58C83.8154 14.6711 83.2031 15.3858 82.3062 15.4883C82.0285 15.5224 81.8441 15.4883 81.58 15.3084C81.3638 15.1263 81.2204 15.0239 81.1134 14.8054C81.0428 14.662 80.6832 14.9943 80.583 15.4632C80.542 15.6567 80.1983 15.6203 79.9092 15.4496C79.5655 15.2447 79.4334 14.7963 79.3424 14.7803C79.2513 14.7667 78.9987 15.0626 78.8962 15.3175C78.7369 15.7114 78.5388 15.9094 78.2748 15.7774C78.0676 15.6727 77.9242 15.5042 77.8172 15.3289C77.6829 15.0945 77.6238 14.8486 77.5304 14.7098C77.5099 14.6711 77.4894 14.646 77.469 14.6392C77.3597 14.5504 76.9818 14.9397 76.8635 15.074C76.7132 15.2424 76.4196 15.511 76.0736 15.4746C75.6729 15.4336 75.6433 14.794 75.3133 14.1202C75.2973 14.0314 75.1744 13.9836 75.1038 14.036C74.4801 14.4867 74.2775 14.6142 73.9179 14.7553C73.5149 14.9124 73.4626 14.58 73.4626 14.58C73.3852 14.0155 73.0847 13.2711 72.7911 13.2142C72.5111 13.2051 71.9739 14.0405 71.2523 14.2272C71.0087 14.2909 71.0041 13.8334 71.0041 13.8288C70.9723 13.3804 70.6217 12.6747 70.2529 12.636C70.0572 12.6132 70.1118 13.0435 68.8917 13.5761C68.3545 13.8106 67.5782 13.7787 67.123 13.649C67.0273 14.2249 66.7405 15.3517 66.5288 15.3904C66.5288 15.3904 64.6895 14.687 64.2001 14.7507C63.5696 15.0535 62.5384 16.3601 62.5384 16.3601C61.876 16.392 61.4594 15.4678 61.2727 15.6681C61.0337 15.9253 60.3394 18.7708 60.6877 20.6283C61.5983 25.4928 63.2122 29.0826 64.1273 34.6392C64.4687 36.7084 62.3654 38.0833 61.4457 39.7587C61.4457 39.7587 61.3228 39.975 61.6096 39.975C62.4815 39.9818 63.2418 40.0205 64.2457 39.9795C64.5188 39.9681 64.9308 39.6677 65.0082 39.3239C65.245 38.2927 65.443 37.0612 65.8095 36.0096C65.937 35.5224 66.6996 34.7553 67.7307 34.0906C67.7854 34.0565 67.1366 33.6763 67.3369 33.2529C67.4303 33.0549 67.5668 32.9251 67.708 32.7567C67.8468 32.5905 67.9925 32.3879 68.1041 32.0442C67.2322 31.7756 67.5964 31.2133 67.5964 31.2133C67.6579 31.0608 67.881 30.7853 68.2862 30.239C67.799 29.8042 67.6716 30.0068 67.5213 29.8111C67.3551 29.5925 67.4416 29.2602 67.8218 28.7913C68.0767 28.4748 68.6572 27.8329 68.1382 27.8147C67.4507 27.7897 66.9021 27.4277 67 26.6492L66.9932 25.0808C66.9932 24.9078 67.1753 25.0171 67.1753 25.0171C67.9584 25.4154 68.8052 25.5884 69.57 25.7136C69.57 25.7136 69.6725 25.7318 69.6611 25.8684C69.6087 26.5923 69.8955 27.9536 70.064 28.6911C70.2188 29.3672 70.5989 30.4188 70.4783 31.5479C70.3941 32.3378 69.7999 32.6132 69.397 32.982C69.1421 33.2142 68.425 33.5192 68.491 33.8379C68.491 33.8379 68.5138 33.9495 68.6686 34.0747C68.6686 34.0747 70.039 35.3403 70.608 35.7387C70.8858 35.9344 71.2454 34.1543 71.5641 33.4965C71.703 33.2096 72.0103 32.9388 72.1651 32.8568C72.6317 32.6155 72.8821 31.9964 72.8821 31.9964L72.8889 31.903C72.4951 31.9121 72.5111 31.639 72.6044 31.5206C72.6977 31.4022 72.9436 31.2178 73.1416 31.0585C73.6083 30.6784 73.7995 30.2527 73.7995 30.2527L73.7927 30.198C73.2805 30.2777 73.2418 29.9363 73.2532 29.8452C73.2645 29.7519 73.3283 29.6198 73.5559 29.4286C73.738 29.2761 74.2434 29.0257 74.3982 28.4293C74.4141 28.3724 73.8928 28.6 73.4421 27.9991C73.178 27.6485 73.4558 26.7038 73.6447 26.2668C73.7949 25.9208 73.8405 25.8434 74.0203 25.8593C74.5962 25.9026 75.1562 25.7683 75.8846 25.6499C75.8846 25.6499 76.415 25.5384 76.3217 26.0232C75.9643 27.5916 75.4658 29.4309 75.2131 31.0494C75.2131 31.0494 75.163 31.3385 75.0469 31.4705C74.5234 32.076 73.9748 32.4061 73.3875 32.7658C72.9595 33.0275 72.5475 33.1596 72.3449 33.5989C72.3449 33.5989 72.2425 33.8311 72.4268 33.9813L74.5006 35.725C74.6076 35.8161 74.6736 35.7114 74.6736 35.7114C75.0947 35.1787 75.4817 34.382 75.7276 33.7583C75.8846 33.3576 75.8072 33.13 76.0485 32.8796C76.0485 32.8796 76.2466 32.7202 76.5311 32.6315C76.8703 32.5267 76.9386 32.4789 77.1571 32.2263C77.321 32.0396 77.2504 32.1398 77.0251 31.7141C76.9408 31.5525 77.3825 31.3908 77.3825 31.3908C77.5122 31.3248 77.6329 31.3089 77.7694 31.2543C77.906 31.1996 78.0608 31.1109 78.2566 30.8992C77.7694 30.8992 77.7899 30.6465 77.9402 30.5236C78.3681 30.173 78.8598 30.3323 79.3469 29.6563V29.6221C79.2445 29.6221 78.9964 29.5356 78.9213 29.3831C78.8507 29.1851 79.3743 28.7753 79.9047 28.6023C80.3599 28.4566 80.3326 28.1084 80.3326 28.1084C80.0549 28.1015 79.6588 26.9998 79.7749 26.6834C79.6793 25.9868 81.0178 25.8047 81.5072 25.7432C81.5072 25.7432 81.6688 26.5718 81.8555 27.1955C82.3267 28.7662 83.7722 30.7148 83.7722 30.7148C83.8496 30.8172 84.0203 30.9788 83.8405 31.2224L81.5732 33.9904C81.4594 34.1247 81.4389 34.3638 81.6347 34.3638L84.9286 34.2408C85.1607 34.2112 85.3497 34.0815 85.3702 33.9335C85.4567 33.2893 85.0902 32.0032 85.6228 31.1154C85.8345 30.7603 85.9461 30.5008 86.0986 30.0956C86.0986 30.0956 85.443 30.2094 85.921 29.6107C86.0895 29.3968 86.2352 29.16 86.3331 28.8482C86.3331 28.8482 86.0553 28.6797 85.8186 28.4521C85.723 28.361 85.8596 28.3041 85.8596 28.3041C85.9825 28.1926 86.0736 28.0833 86.1441 27.9445C86.2147 27.8079 86.2648 27.6394 86.2989 27.4141C85.5568 27.4277 85.3998 27.0817 85.336 26.8655C85.2973 26.7334 85.3633 25.9982 85.5159 25.7159C85.682 25.4086 86.0394 24.9146 86.4628 24.4799C86.6358 24.3182 86.8384 24.234 86.8908 24.4298C87.0319 24.9397 87.4371 26.7676 88.0153 27.2661C88.0153 27.2661 89.051 28.2586 89.7339 29.1168C90.1209 29.6016 90.7173 30.2208 90.5944 30.8992L90.4965 31.0608L88.5639 33.9813C88.5639 33.9813 88.4478 34.1498 88.5297 34.2613C88.6049 34.3638 88.7118 34.3774 88.7847 34.3592L91.9374 33.5739C91.9374 33.5739 92.0399 33.5557 92.0899 33.4965C92.1218 33.4578 92.1218 33.3895 92.1218 33.3895L91.9943 31.2543C91.9852 30.8946 92.634 30.3915 92.782 30.198C92.8115 30.1593 92.8002 30.1252 92.7592 30.1002C92.6112 30.0091 92.4769 29.6722 92.5794 29.5766C93.0119 29.1714 93.2304 28.7662 93.0938 28.7913C92.8502 28.8368 92.5543 28.8277 92.4655 28.6023C92.42 28.4931 92.5361 28.4225 92.5361 28.4225C92.8753 28.1334 92.9413 27.9149 92.9413 27.7897C92.9413 27.7077 92.914 27.6645 92.914 27.6645C92.914 27.6645 91.7439 27.5506 91.1703 26.7016C90.9791 26.417 91.0383 24.7781 91.0406 24.3228C91.0406 24.3228 91.036 24.1612 91.1635 24.1976C92.9322 25.3335 94.4323 25.7227 96.8088 26.1598C96.8088 26.1598 97.0569 26.112 97.6169 27.0977C98.598 28.8277 99.5655 30.4075 100.617 32.1102C100.863 32.5085 101.034 32.875 101.12 33.2188C100.569 34.2112 99.545 35.1537 98.7619 36.0938C98.4592 36.4603 98.6595 36.5582 98.9235 36.5172L102.135 36.0118C102.135 36.0118 102.331 35.9914 102.384 35.7614C102.557 34.992 102.404 33.6786 103.451 32.743C103.205 32.4311 103 32.4402 102.654 32.0442V32.0464ZM91.6552 12.3059C90.4055 12.3765 90.064 12.3128 90.064 12.3128C89.4448 13.155 89.0214 13.4714 88.4569 13.8265C87.8195 14.2249 87.0273 14.5823 86.3604 14.5823C86.2853 14.5777 86.3012 14.5163 86.3422 14.4753C86.39 14.4252 86.4218 14.3979 86.4218 14.3979C87.8218 12.9114 88.6026 10.8605 89.2787 9.72228C89.693 9.02572 90.0139 8.2677 91.0724 7.97405C92.5634 7.55975 93.8951 8.8254 93.82 10.2458C93.7585 11.4159 92.9185 12.2354 91.6552 12.3059Z" fill="url(#paint0_linear_4411_7693)"/>
<path d="M18.0769 23.7193H4.5713C5.20185 26.3849 7.43723 28.165 10.8085 28.165C12.9847 28.165 14.6897 27.4753 16.0669 26.0617L18.498 28.8547C16.7566 30.9217 14.0364 32.0098 10.6992 32.0098C4.1388 32.0098 -0.0883824 27.7507 0.000395193 21.8891C0.0823438 16.5078 4.52122 12.2169 9.90251 12.1691C15.6161 12.119 19.8024 16.2051 19.8024 22.0234C19.8024 23.4735 19.256 23.717 18.0769 23.717V23.7193ZM4.52578 20.3207H15.4409C15.0448 17.7666 12.9847 15.7976 10.0118 15.7976C7.03887 15.7976 5.01064 17.671 4.52578 20.3207ZM41.9922 20.6576V31.7571H37.4577V21.2381C37.4577 17.7917 35.7527 16.1231 32.8504 16.1231C29.6225 16.1231 27.4463 18.0808 27.4463 21.962V31.7548H22.9118V12.3876H23.9635C26.0623 12.3876 27.2278 13.5076 27.2278 14.8893C28.7143 13.1115 31.0726 12.1691 33.9021 12.1691C38.5435 12.1691 41.9899 14.8165 41.9899 20.6553L41.9922 20.6576ZM45.7778 6.61026C45.7778 5.16251 46.9501 4.02661 48.5344 4.02661C50.1188 4.02661 51.2911 5.09421 51.2911 6.50783C51.2911 8.02388 50.1529 9.1962 48.5344 9.1962C46.9159 9.1962 45.7778 8.05802 45.7778 6.61254V6.61026ZM46.249 12.3876H47.1754C49.4199 12.3876 50.7835 13.2208 50.7835 14.7824V31.7548H46.249V12.3876Z" fill="url(#paint1_linear_4411_7693)"/>
</g>
<defs>
<linearGradient id="paint0_linear_4411_7693" x1="61.9443" y1="14.5003" x2="101.496" y2="37.3344" gradientUnits="userSpaceOnUse">
<stop offset="0.2" stop-color="#FAB600"/>
<stop offset="0.8" stop-color="#FFCC00"/>
</linearGradient>
<linearGradient id="paint1_linear_4411_7693" x1="50.4056" y1="-0.139112" x2="1.90343" y2="48.3631" gradientUnits="userSpaceOnUse">
<stop offset="0.25" stop-color="#FAB600"/>
<stop offset="0.75" stop-color="#FFCC00"/>
</linearGradient>
<clipPath id="clip0_4411_7693">
<rect width="103.449" height="40" fill="white"/>
</clipPath>
</defs>
</svg>
