<svg height="316.227766" viewBox="0 0 19.216743 19.215361" width="316.227766" xmlns="http://www.w3.org/2000/svg" xmlns:xlink="http://www.w3.org/1999/xlink"><symbol id="a" overflow="visible"/><symbol id="b" overflow="visible"/><g transform="translate(-138.02155 -88.871241)"><path d="m138.15384 89.003533h18.95216v18.950777h-18.95216zm0 0" fill="#0066a6"/><g fill="#fff"><path d="m150.52311 94.282795 1.57647 2.010559s.14608.246669.14608.439592c0 .191548.0579 2.045011.0579 2.045011s.0345.311436-.15848.538811c-.22875.270098-1.27882 1.463482-1.27882 1.463482s-.27699.34726-.27699.78272.0221 1.80661.0221 1.80661h-1.42489v-2.32613s-.0648-.28525.23151-.62012c.29628-.33624 1.00183-1.160304 1.00183-1.160304s.12265-.184658.12265-.358291c0-.172255-.0303-1.378039-.0303-1.378039s-.0124-.278362.26183-.381716c.18465-.07028.32384 0 .32384.242535 0 .272852.0455 1.171335.0455 1.171335s.0193.184655.23978.184655c.21911 0 .2067-.289388.2067-.289388l-.0345-1.675694s0-.23151-.0923-.358288c-.0923-.126781-1.25126-1.922364-1.25126-1.922364s-.13504-.163989.0221-.272852c.18603-.126782.28939.05788.28939.05788"/><path d="m145.30724 94.282795-1.57648 2.010559s-.14607.246669-.14607.439592c0 .191548-.0579 2.045011-.0579 2.045011s-.0344.311436.15847.538811c.22876.270098 1.27882 1.463482 1.27882 1.463482s.27699.34726.27699.78272-.0234 1.80661-.0234 1.80661h1.42627v-2.32613s.0648-.28525-.23151-.62012c-.29628-.33624-1.00184-1.160304-1.00184-1.160304s-.12264-.184658-.12264-.358291c0-.172255.0303-1.378039.0303-1.378039s.011-.278362-.26183-.381716c-.18466-.07028-.32384 0-.32384.242535 0 .272852-.0455 1.171335-.0455 1.171335s-.0193.184655-.23978.184655c-.21911 0-.20809-.289388-.20809-.289388l.0358-1.675694s0-.23151.0909-.358288c.0937-.126781 1.25264-1.922364 1.25264-1.922364s.13367-.163989-.0234-.272852c-.18466-.126782-.28801.05788-.28801.05788"/><path d="m147.41563 99.370514-.60909-2.988966v2.960028h-.73312v-4.759745h1.1796l.66698 3.580144.65732-3.580144h1.1796v4.759745h-.73312v-2.960028l-.60909 2.988966zm0 0"/><path d="m143.8727 91.948398c0-.274228-.16675-.365178-.25907-.365178-.0923 0-.21498.07993-.21498.225997 0 .146074.22187.139181.22187.139181zm3.59117-.03583h1.49792s-.32108-.405144-.66835-.405144c-.2756 0-.82957.405144-.82957.405144m6.61871-.170875.63803.294897s-.0358-.355533-.25494-.497469c-.18878-.122647-.38309.202572-.38309.202572m-.57326.835088-.18052.293526h-1.84658l-.0813-.243915-.16399.235645h-5.0133l-.073-.243914-.17914.243914h-1.50482s-.30317 1.145149-.87505 1.145149c-.57189 0-.89848-.841982-.89848-.841982.82682.254938 1.22645-.303167 1.22645-.303167h-.47542c-.51677 0-.62012-.383095-.62012-.580153 0-.531926.45751-1.446943.86541-1.446943.56499 0 .81028 1.070737.81028 1.070737h1.47175l-.0565-.188792.54708-.49747.20395.686262c1.29949-.858516 1.67569-1.036285 1.76527-1.079002.14056-.06615.2384-.07304.2384-.07304.54708-.0248 1.07073.629761 1.03904.898479-.0124.08957-.0413.270097-.0413.270097h1.53651l-.0744-.237024.55673-.507118.2136.735873h1.44556c.57326-.883324.98116-1.276064 1.30914-1.153417.32797.124022.53054.673858.6463.997698.10473.294901-.10611.654568-.10611.654568l-.40239.687642zm0 0"/><path d="m141.51625 91.871228.48507-.618737s.42857.547081.42857 1.103806c0 .553974-.50023 1.66467-1.00045 1.66467-.50023 0-.85026-.830954-.85026-.830954s1.01286.311436 1.37529-.61323c0 0-.0717-.31557-.43822-.705555"/><path d="m151.30446 89.735271.58291.514008-.44511.409275-.58291-.512628zm0 0"/><path d="m140.45241 106.52666v-1.88515h.74965l.3321 1.17684.32936-1.17684h.74965v1.88515h-.56224v-1.05695l-.30317 1.05695h-.43132l-.30593-1.05695v1.05695zm0 0"/><path d="m142.82125 106.52666.67387-1.88515h.62976l.67386 1.88515h-.61598l-.0717-.24667h-.61598l-.0703.24667zm.98255-1.31878-.19431.68489h.39412zm0 0"/><path d="m145.06194 106.52666v-1.88515h.57602l.64906 1.0101v-1.0101h.59256v1.88515h-.58843l-.63527-.98529v.98529zm0 0"/><path d="m148.84328 105.18721h-.58704c-.0138-.0551-.04-.0951-.0799-.12264-.0372-.0276-.0923-.0414-.16398-.0414-.0703 0-.12403.0138-.16124.0427-.0275.022-.0413.0496-.0413.0854 0 .0289.01.0524.0303.0717.0303.0248.0992.051.20946.0786l.24116.0579c.22186.0537.37758.13091.46715.22875.0896.0992.13505.2136.13505.34313 0 .10473-.0234.19982-.0703.28526-.0455.0854-.10197.15158-.1695.20119-.0675.0496-.15572.0882-.2632.11713-.10749.0289-.22049.0441-.339.0441-.12954 0-.25218-.0165-.36656-.051-.11438-.0331-.20809-.0813-.2825-.14469-.0744-.0634-.12953-.13643-.16812-.22049-.0276-.0579-.0455-.13091-.0551-.21773h.59256c.0138.0593.0441.10473.0896.13781.0469.0317.11713.0482.21222.0482.0827 0 .14331-.0138.18052-.0413.0262-.0221.0386-.0496.0386-.0882 0-.0372-.011-.0689-.0372-.091-.0248-.0248-.0909-.0496-.20257-.0758l-.21635-.0537c-.11163-.0276-.21774-.0634-.31695-.11162-.0978-.0482-.17364-.10887-.22325-.18466-.0496-.0758-.0758-.16674-.0758-.27423 0-.10611.0234-.19982.0675-.2825.0455-.0813.1061-.14745.18052-.19844.0772-.0496.16123-.0854.25493-.10611.0923-.0207.1888-.0317.28802-.0317.11713 0 .22599.0124.32383.0372.0978.022.17501.0537.23427.0923.0579.0386.10473.0827.14056.13367.0372.0482.0648.0992.0841.15158.0221.051.0386.11163.0496.18053"/><path d="m150.11245 106.57628c-.30179 0-.54294-.0909-.72209-.27148-.18052-.1819-.27009-.42306-.27009-.72347 0-.14469.0207-.27285.062-.38723s.0978-.21084.16674-.28938c.0717-.0785.14469-.13919.22049-.18053.0772-.0427.15985-.0744.24942-.0978.0896-.0234.18466-.0344.2825-.0344.18603 0 .35691.0386.51263.11713.1571.0785.27698.19155.35967.34037.0827.14883.12402.31833.12402.51126 0 .19017-.0358.35966-.10886.50987-.073.15021-.18466.27285-.33349.36518-.14745.0937-.32935.14056-.54295.14056m-.008-.4644c.0703 0 .13505-.0179.19293-.0537.0579-.0358.10472-.0937.13918-.17639.0345-.0813.0524-.1819.0524-.29903 0-.0854-.01-.16123-.0262-.226-.0165-.0675-.04-.12127-.0689-.16123-.0276-.0413-.0661-.0758-.11438-.10335-.0482-.0276-.10198-.0414-.16261-.0414-.0675 0-.13091.0193-.19155.0565-.0592.0386-.10749.0978-.14194.17914-.0358.0785-.0524.17776-.0524.29628 0 .17638.04.31419.12127.41479.062.0758.14745.11437.25218.11437"/><path d="m151.42159 104.64151h.61598v1.16168c0 .0772.01.13505.0276.17502.0193.04.0524.0716.1006.0965.0496.0248.10473.0372.16674.0372.0909 0 .16123-.0248.21222-.073.0496-.0496.0758-.12816.0758-.23565v-1.16168h.61461v1.10105c0 .1378-.01.24805-.0317.32797-.022.0813-.0579.15297-.10749.21498-.0496.062-.11024.11438-.1819.15985-.0717.0441-.1571.0772-.25494.1006-.0978.0234-.20395.0345-.31695.0345-.13367 0-.24942-.011-.34726-.0345-.0978-.0234-.18328-.0579-.25494-.10336-.0717-.0455-.13091-.0978-.17914-.15847-.0482-.062-.0854-.14332-.113-.24529-.0179-.0648-.0262-.16537-.0262-.30041zm0 0"/><path d="m153.61543 106.52666v-1.88515h.9219c.12954 0 .23703.007.32522.0207.0868.0138.15847.0358.21498.0648.0579.0303.1061.0675.14331.113.0413.0455.0703.0937.0896.14469.0193.051.0303.11438.0303.19155 0 .0937-.0165.17363-.0455.23702-.0303.0648-.0717.11713-.12679.15847-.0386.0303-.0868.0524-.14607.0675.12127.0468.20395.0978.24805.15296.0427.0565.0661.15021.0703.2825l.008.29765c.001.0427.007.0689.0138.0772.008.011.0234.0179.0455.0193v.0579h-.62563c-.0179-.051-.0276-.1378-.0303-.26045l-.004-.13918c0-.0648-.011-.11438-.0303-.14883-.0193-.0345-.0482-.062-.0868-.0799s-.0978-.0276-.17776-.0276h-.23978v.65594zm.59807-1.06935h.2949c.0951 0 .16261-.0166.20119-.0496.0386-.0317.0593-.0772.0593-.13229 0-.0565-.0193-.1006-.0565-.13229-.0372-.0317-.10197-.0482-.19705-.0482h-.30179zm0 0"/><use height="100%" transform="matrix(.35277777 0 0 .35277777 -66.499987 -27.053464)" width="100%" x="64.099098" xlink:href="#a" y="455.69421"/><use height="100%" transform="matrix(.35277777 0 0 .35277777 -66.499987 -27.053464)" width="100%" x="460.08179" xlink:href="#a" y="455.69421"/><use height="100%" transform="matrix(.35277777 0 0 .35277777 -66.499987 -27.053464)" width="100%" x="633.84271" xlink:href="#b" y="433.08411"/></g></g></svg>